<svg width="168" height="16" viewBox="0 0 168 16" fill="none" xmlns="http://www.w3.org/2000/svg">
<path d="M14.5411 0.156924H12.5364C11.9178 0.156924 11.4163 0.648347 11.4163 1.25459V3.21923C11.4163 3.82547 11.9178 4.31692 12.5364 4.31692H14.5411C15.1597 4.31692 15.6612 3.82547 15.6612 3.21923V1.25459C15.6612 0.648347 15.1597 0.156924 14.5411 0.156924Z" fill="#FBFBFB"/>
<path d="M3.36519 11.52H1.20624C0.540049 11.52 0 12.0115 0 12.6177V14.5823C0 15.1886 0.540049 15.68 1.20624 15.68H3.36519C4.03138 15.68 4.57143 15.1886 4.57143 14.5823V12.6177C4.57143 12.0115 4.03138 11.52 3.36519 11.52Z" fill="#FBFBFB"/>
<path d="M3.1248 5.79091H1.12007C0.501486 5.79091 0 6.28233 0 6.88857V8.85321C0 9.45945 0.501599 9.95091 1.12018 9.95091H3.1248C3.74341 9.95091 4.2449 9.45945 4.2449 8.85321V6.88857C4.2449 6.28233 3.74341 5.79091 3.1248 5.79091Z" fill="#FBFBFB"/>
<path d="M8.88295 11.4891H6.87822C6.25964 11.4891 5.75815 11.9805 5.75815 12.5868L5.75804 14.5514C5.75804 15.1576 6.25975 15.6491 6.87833 15.6491H8.88295C9.50157 15.6491 10.0031 15.1576 10.0031 14.5514V12.5868C10.0031 11.9805 9.50157 11.4891 8.88295 11.4891Z" fill="#FBFBFB"/>
<path d="M3.1248 0.0431361H1.12007C0.501486 0.0431361 0 0.534559 0 1.1408V3.10544C0 3.71168 0.501599 4.20314 1.12018 4.20314H3.1248C3.74341 4.20314 4.2449 3.71168 4.2449 3.10544V1.1408C4.2449 0.534559 3.74341 0.0431361 3.1248 0.0431361Z" fill="#FBFBFB"/>
<path d="M9.03794 5.84874H7.03321C6.41463 5.84874 5.91314 6.34016 5.91314 6.9464V8.91104C5.91314 9.51728 6.41474 10.0087 7.03332 10.0087H9.03794C9.65655 10.0087 10.158 9.51728 10.158 8.91104V6.9464C10.158 6.34016 9.65655 5.84874 9.03794 5.84874Z" fill="#FBFBFB"/>
<path d="M14.6667 11.4891H12.6619C12.0434 11.4891 11.5419 11.9805 11.5419 12.5868V14.5514C11.5419 15.1576 12.0435 15.6491 12.662 15.6491H14.6667C15.2853 15.6491 15.7868 15.1576 15.7868 14.5514V12.5868C15.7868 11.9805 15.2853 11.4891 14.6667 11.4891Z" fill="#FBFBFB"/>
<path d="M8.7953 0.111854H6.79056C6.17198 0.111854 5.6705 0.603277 5.6705 1.20952V3.17416C5.6705 3.7804 6.1721 4.27185 6.79068 4.27185H8.7953C9.41391 4.27185 9.91539 3.78003 9.91539 3.17379V1.20952C9.91539 0.603277 9.41391 0.111854 8.7953 0.111854Z" fill="#FBFBFB"/>
<path d="M14.5219 5.96291H12.5171C11.8985 5.96291 11.3971 6.45433 11.3971 7.06057V9.02521C11.3971 9.63145 11.8987 10.1229 12.5172 10.1229H14.5219C15.1405 10.1229 15.642 9.63145 15.642 9.02521V7.06057C15.642 6.45433 15.1405 5.96291 14.5219 5.96291Z" fill="#FBFBFB"/>
<path d="M26.301 14C22.5132 14 20 11.648 20 7.984C20 4.4 22.4773 2 26.2112 2C29.3527 2 31.5607 3.648 31.8839 6.128H29.2809C29.0296 4.704 27.8268 3.904 26.2112 3.904C23.9493 3.904 22.603 5.536 22.603 7.984C22.603 10.672 24.1109 12.096 26.301 12.096C28.2038 12.096 29.4245 11.136 29.5502 9.696V9.536H26.0496V7.744H31.9736V9.216C31.8659 12.08 29.604 14 26.301 14Z" fill="#FBFBFB"/>
<path d="M33.543 13.84V2.16H39.8439C43.0572 2.16 44.3318 3.552 44.3318 5.568C44.3318 7.376 42.8957 8.24 41.2262 8.448V8.496C42.3033 8.736 42.788 9.264 43.2368 10.304C43.8112 11.616 43.901 13.184 44.637 13.744V13.84H41.7647C41.1544 13.296 41.0108 11.584 40.6876 10.544C40.3645 9.472 39.6644 9.344 38.354 9.344H36.0562V13.84H33.543ZM36.0562 7.488H39.5747C41.0467 7.488 41.7288 6.72 41.7288 5.728C41.7288 4.64 40.8851 4.016 39.5747 4.016H36.0562V7.488Z" fill="#FBFBFB"/>
<path d="M46.001 13.84V2.16H54.9588V4.016H48.5142V6.8H54.3305V8.656H48.5142V11.936H55.0485V13.84H46.001Z" fill="#FBFBFB"/>
<path d="M56.7936 13.84V2.16H65.7514V4.016H59.3068V6.8H65.1231V8.656H59.3068V11.936H65.8411V13.84H56.7936Z" fill="#FBFBFB"/>
<path d="M67.5862 13.84V2.16H70.638L74.9822 8.608C76.3106 10.56 76.4722 11.2 76.4722 11.2H76.526L76.4901 2.16H79.0033V13.84H75.9336L71.4278 7.2C70.4046 5.696 70.1353 4.784 70.1353 4.784H70.0994V13.84H67.5862Z" fill="#FBFBFB"/>
<path d="M80.894 13.84V11.472H83.5149V13.84H80.894Z" fill="#FBFBFB"/>
<path d="M85.4023 13.84V2.16H87.9155V6.832H93.9293V2.16H96.4425V13.84H93.9293V8.688H87.9155V13.84H85.4023Z" fill="#FBFBFB"/>
<path d="M97.5166 13.84L102.543 2.16H105.272L110.37 13.84H107.677L106.618 11.152H101.179L100.12 13.84H97.5166ZM101.897 9.296H105.9L104.733 6.416C103.925 4.288 103.907 3.904 103.907 3.904H103.871C103.871 3.904 103.871 4.288 103.064 6.416L101.897 9.296Z" fill="#FBFBFB"/>
<path d="M111.44 13.84V2.16H117.741C120.955 2.16 122.229 3.552 122.229 5.568C122.229 7.376 120.793 8.24 119.124 8.448V8.496C120.201 8.736 120.685 9.264 121.134 10.304C121.709 11.616 121.798 13.184 122.534 13.744V13.84H119.662C119.052 13.296 118.908 11.584 118.585 10.544C118.262 9.472 117.562 9.344 116.251 9.344H113.954V13.84H111.44ZM113.954 7.488H117.472C118.944 7.488 119.626 6.72 119.626 5.728C119.626 4.64 118.782 4.016 117.472 4.016H113.954V7.488Z" fill="#FBFBFB"/>
<path d="M126.563 13.84L121.752 2.16H124.445C124.445 2.16 127.048 8.704 127.317 9.504C127.748 10.784 127.945 11.44 127.945 11.44H127.981C127.963 11.44 128.161 10.784 128.609 9.504C128.897 8.704 131.392 2.16 131.392 2.16H133.995L129.363 13.84H126.563Z" fill="#FBFBFB"/>
<path d="M135.024 13.84V2.16H143.982V4.016H137.537V6.8H143.354V8.656H137.537V11.936H144.072V13.84H135.024Z" fill="#FBFBFB"/>
<path d="M150.311 14C146.972 14 144.961 12.384 144.961 9.984H147.834C147.798 11.344 148.803 12.096 150.311 12.096C151.909 12.096 152.662 11.536 152.662 10.704C152.662 9.872 152.016 9.52 149.718 8.96C147.618 8.448 145.32 7.84 145.32 5.44C145.32 3.536 147.187 2 150.131 2C153.165 2 155.104 3.52 155.104 5.664H152.321C152.303 4.528 151.442 3.904 150.131 3.904C148.857 3.904 148.013 4.48 148.013 5.248C148.013 6.16 148.713 6.448 150.544 6.912C153.255 7.584 155.445 7.856 155.445 10.464C155.445 12.56 153.309 14 150.311 14Z" fill="#FBFBFB"/>
<path d="M159.537 13.84V4.064H155.57V2.16H166V4.064H162.051V13.84H159.537Z" fill="#FBFBFB"/>
</svg>
