<svg width="194" height="18" viewBox="0 0 194 18" fill="none" xmlns="http://www.w3.org/2000/svg">
<path d="M16.3587 0.176539H14.1034C13.4075 0.176539 12.8433 0.729391 12.8433 1.41141V3.62163C12.8433 4.30365 13.4075 4.85654 14.1034 4.85654H16.3587C17.0547 4.85654 17.6188 4.30365 17.6188 3.62163V1.41141C17.6188 0.729391 17.0547 0.176539 16.3587 0.176539Z" fill="#FBFBFB"/>
<path d="M3.78584 12.96H1.35702C0.607555 12.96 0 13.5129 0 14.1949V16.4051C0 17.0871 0.607555 17.64 1.35702 17.64H3.78584C4.5353 17.64 5.14286 17.0871 5.14286 16.4051V14.1949C5.14286 13.5129 4.5353 12.96 3.78584 12.96Z" fill="#FBFBFB"/>
<path d="M3.5154 6.51477H1.26007C0.564171 6.51477 0 7.06763 0 7.74965V9.95986C0 10.6419 0.564299 11.1948 1.2602 11.1948H3.5154C4.21134 11.1948 4.77551 10.6419 4.77551 9.95986V7.74965C4.77551 7.06763 4.21134 6.51477 3.5154 6.51477Z" fill="#FBFBFB"/>
<path d="M9.99332 12.9252H7.738C7.0421 12.9252 6.47792 13.4781 6.47792 14.1601L6.4778 16.3703C6.4778 17.0523 7.04222 17.6052 7.73813 17.6052H9.99332C10.6893 17.6052 11.2534 17.0523 11.2534 16.3703V14.1601C11.2534 13.4781 10.6893 12.9252 9.99332 12.9252Z" fill="#FBFBFB"/>
<path d="M3.5154 0.0485281H1.26007C0.564171 0.0485281 0 0.601379 0 1.2834V3.49362C0 4.17564 0.564299 4.72853 1.2602 4.72853H3.5154C4.21134 4.72853 4.77551 4.17564 4.77551 3.49362V1.2834C4.77551 0.601379 4.21134 0.0485281 3.5154 0.0485281Z" fill="#FBFBFB"/>
<path d="M10.1677 6.57983H7.91236C7.21645 6.57983 6.65228 7.13268 6.65228 7.8147V10.0249C6.65228 10.7069 7.21658 11.2598 7.91249 11.2598H10.1677C10.8636 11.2598 11.4278 10.7069 11.4278 10.0249V7.8147C11.4278 7.13268 10.8636 6.57983 10.1677 6.57983Z" fill="#FBFBFB"/>
<path d="M16.5 12.9252H14.2447C13.5488 12.9252 12.9846 13.4781 12.9846 14.1601V16.3703C12.9846 17.0523 13.5489 17.6052 14.2448 17.6052H16.5C17.1959 17.6052 17.7601 17.0523 17.7601 16.3703V14.1601C17.7601 13.4781 17.1959 12.9252 16.5 12.9252Z" fill="#FBFBFB"/>
<path d="M9.89471 0.125835H7.63938C6.94348 0.125835 6.37931 0.678686 6.37931 1.36071V3.57093C6.37931 4.25295 6.94361 4.80583 7.63951 4.80583H9.89471C10.5906 4.80583 11.1548 4.25253 11.1548 3.57051V1.36071C11.1548 0.678686 10.5906 0.125835 9.89471 0.125835Z" fill="#FBFBFB"/>
<path d="M16.3371 6.70827H14.0818C13.3859 6.70827 12.8217 7.26113 12.8217 7.94315V10.1534C12.8217 10.8354 13.386 11.3883 14.0819 11.3883H16.3371C17.033 11.3883 17.5972 10.8354 17.5972 10.1534V7.94315C17.5972 7.26113 17.033 6.70827 16.3371 6.70827Z" fill="#FBFBFB"/>
<path d="M33.2504 17C28.8919 17 26 14.06 26 9.48C26 5 28.8506 2 33.1471 2C36.762 2 39.3028 4.06 39.6746 7.16H36.6794C36.3902 5.38 35.0062 4.38 33.1471 4.38C30.5444 4.38 28.9952 6.42 28.9952 9.48C28.9952 12.84 30.7303 14.62 33.2504 14.62C35.44 14.62 36.8446 13.42 36.9892 11.62V11.42H32.9612V9.18H39.7779V11.02C39.6539 14.6 37.0512 17 33.2504 17Z" fill="#FBFBFB"/>
<path d="M41.5837 16.8V2.2H48.8341C52.5316 2.2 53.9982 3.94 53.9982 6.46C53.9982 8.72 52.3457 9.8 50.4247 10.06V10.12C51.664 10.42 52.2218 11.08 52.7382 12.38C53.3992 14.02 53.5025 15.98 54.3494 16.68V16.8H51.0444C50.342 16.12 50.1768 13.98 49.805 12.68C49.4331 11.34 48.6275 11.18 47.1196 11.18H44.4756V16.8H41.5837ZM44.4756 8.86H48.5243C50.2181 8.86 51.003 7.9 51.003 6.66C51.003 5.3 50.0322 4.52 48.5243 4.52H44.4756V8.86Z" fill="#FBFBFB"/>
<path d="M55.919 16.8V2.2H66.2265V4.52H58.8109V8H65.5036V10.32H58.8109V14.42H66.3298V16.8H55.919Z" fill="#FBFBFB"/>
<path d="M68.3378 16.8V2.2H78.6454V4.52H71.2298V8H77.9224V10.32H71.2298V14.42H78.7487V16.8H68.3378Z" fill="#FBFBFB"/>
<path d="M80.7567 16.8V2.2H84.2683L89.2672 10.26C90.7958 12.7 90.9817 13.5 90.9817 13.5H91.0437L91.0023 2.2H93.8943V16.8H90.362L85.1772 8.5C83.9998 6.62 83.69 5.48 83.69 5.48H83.6486V16.8H80.7567Z" fill="#FBFBFB"/>
<path d="M96.0698 16.8V13.84H99.0856V16.8H96.0698Z" fill="#FBFBFB"/>
<path d="M101.257 16.8V2.2H104.149V8.04H111.069V2.2H113.961V16.8H111.069V10.36H104.149V16.8H101.257Z" fill="#FBFBFB"/>
<path d="M115.197 16.8L120.981 2.2H124.121L129.987 16.8H126.889L125.67 13.44H119.411L118.192 16.8H115.197ZM120.237 11.12H124.844L123.501 7.52C122.572 4.86 122.551 4.38 122.551 4.38H122.51C122.51 4.38 122.51 4.86 121.58 7.52L120.237 11.12Z" fill="#FBFBFB"/>
<path d="M131.219 16.8V2.2H138.469C142.167 2.2 143.634 3.94 143.634 6.46C143.634 8.72 141.981 9.8 140.06 10.06V10.12C141.299 10.42 141.857 11.08 142.374 12.38C143.035 14.02 143.138 15.98 143.985 16.68V16.8H140.68C139.977 16.12 139.812 13.98 139.44 12.68C139.068 11.34 138.263 11.18 136.755 11.18H134.111V16.8H131.219ZM134.111 8.86H138.16C139.853 8.86 140.638 7.9 140.638 6.66C140.638 5.3 139.668 4.52 138.16 4.52H134.111V8.86Z" fill="#FBFBFB"/>
<path d="M148.62 16.8L143.084 2.2H146.183C146.183 2.2 149.178 10.38 149.488 11.38C149.984 12.98 150.211 13.8 150.211 13.8H150.252C150.232 13.8 150.459 12.98 150.975 11.38C151.306 10.38 154.177 2.2 154.177 2.2H157.172L151.843 16.8H148.62Z" fill="#FBFBFB"/>
<path d="M158.356 16.8V2.2H168.664V4.52H161.248V8H167.941V10.32H161.248V14.42H168.767V16.8H158.356Z" fill="#FBFBFB"/>
<path d="M175.947 17C172.105 17 169.791 14.98 169.791 11.98H173.096C173.055 13.68 174.212 14.62 175.947 14.62C177.785 14.62 178.653 13.92 178.653 12.88C178.653 11.84 177.909 11.4 175.265 10.7C172.848 10.06 170.204 9.3 170.204 6.3C170.204 3.92 172.353 2 175.74 2C179.231 2 181.462 3.9 181.462 6.58H178.26C178.24 5.16 177.248 4.38 175.74 4.38C174.274 4.38 173.303 5.1 173.303 6.06C173.303 7.2 174.108 7.56 176.215 8.14C179.334 8.98 181.854 9.32 181.854 12.58C181.854 15.2 179.396 17 175.947 17Z" fill="#FBFBFB"/>
<path d="M186.564 16.8V4.58H181.999V2.2H194V4.58H189.456V16.8H186.564Z" fill="#FBFBFB"/>
</svg>
