<svg width="18" height="18" viewBox="0 0 18 18" fill="none" xmlns="http://www.w3.org/2000/svg">
<path d="M16.3587 0.176539H14.1034C13.4075 0.176539 12.8433 0.729391 12.8433 1.41141V3.62163C12.8433 4.30365 13.4075 4.85654 14.1034 4.85654H16.3587C17.0547 4.85654 17.6188 4.30365 17.6188 3.62163V1.41141C17.6188 0.729391 17.0547 0.176539 16.3587 0.176539Z" fill="#FBFBFB"/>
<path d="M3.78584 12.96H1.35702C0.607555 12.96 0 13.5129 0 14.1949V16.4051C0 17.0871 0.607555 17.64 1.35702 17.64H3.78584C4.5353 17.64 5.14286 17.0871 5.14286 16.4051V14.1949C5.14286 13.5129 4.5353 12.96 3.78584 12.96Z" fill="#FBFBFB"/>
<path d="M3.5154 6.51477H1.26007C0.564171 6.51477 0 7.06763 0 7.74965V9.95986C0 10.6419 0.564299 11.1948 1.2602 11.1948H3.5154C4.21134 11.1948 4.77551 10.6419 4.77551 9.95986V7.74965C4.77551 7.06763 4.21134 6.51477 3.5154 6.51477Z" fill="#FBFBFB"/>
<path d="M9.99332 12.9252H7.738C7.0421 12.9252 6.47792 13.4781 6.47792 14.1601L6.4778 16.3703C6.4778 17.0523 7.04222 17.6052 7.73813 17.6052H9.99332C10.6893 17.6052 11.2534 17.0523 11.2534 16.3703V14.1601C11.2534 13.4781 10.6893 12.9252 9.99332 12.9252Z" fill="#FBFBFB"/>
<path d="M3.5154 0.0485281H1.26007C0.564171 0.0485281 0 0.601379 0 1.2834V3.49362C0 4.17564 0.564299 4.72853 1.2602 4.72853H3.5154C4.21134 4.72853 4.77551 4.17564 4.77551 3.49362V1.2834C4.77551 0.601379 4.21134 0.0485281 3.5154 0.0485281Z" fill="#FBFBFB"/>
<path d="M10.1677 6.57983H7.91236C7.21645 6.57983 6.65228 7.13268 6.65228 7.8147V10.0249C6.65228 10.7069 7.21658 11.2598 7.91249 11.2598H10.1677C10.8636 11.2598 11.4278 10.7069 11.4278 10.0249V7.8147C11.4278 7.13268 10.8636 6.57983 10.1677 6.57983Z" fill="#FBFBFB"/>
<path d="M16.5 12.9252H14.2447C13.5488 12.9252 12.9846 13.4781 12.9846 14.1601V16.3703C12.9846 17.0523 13.5489 17.6052 14.2448 17.6052H16.5C17.1959 17.6052 17.7601 17.0523 17.7601 16.3703V14.1601C17.7601 13.4781 17.1959 12.9252 16.5 12.9252Z" fill="#FBFBFB"/>
<path d="M9.89471 0.125835H7.63938C6.94348 0.125835 6.37931 0.678686 6.37931 1.36071V3.57093C6.37931 4.25295 6.94361 4.80583 7.63951 4.80583H9.89471C10.5906 4.80583 11.1548 4.25253 11.1548 3.57051V1.36071C11.1548 0.678686 10.5906 0.125835 9.89471 0.125835Z" fill="#FBFBFB"/>
<path d="M16.3371 6.70827H14.0818C13.3859 6.70827 12.8217 7.26113 12.8217 7.94315V10.1534C12.8217 10.8354 13.386 11.3883 14.0819 11.3883H16.3371C17.033 11.3883 17.5972 10.8354 17.5972 10.1534V7.94315C17.5972 7.26113 17.033 6.70827 16.3371 6.70827Z" fill="#FBFBFB"/>
</svg>
