<!-- Generated by IcoMoon.io -->
<svg version="1.1" xmlns="http://www.w3.org/2000/svg" width="345" height="32" viewBox="0 0 345 32">
<path fill="#fbfbfb" d="M29.082 0.314h-4.009c-1.237 0-2.24 0.983-2.24 2.195v3.929c0 1.212 1.003 2.195 2.24 2.195h4.009c1.237 0 2.24-0.983 2.24-2.195v-3.929c0-1.212-1.003-2.195-2.24-2.195z"></path>
<path fill="#fbfbfb" d="M6.73 23.040h-4.318c-1.332 0-2.412 0.983-2.412 2.195v3.929c0 1.212 1.080 2.195 2.412 2.195h4.318c1.332 0 2.412-0.983 2.412-2.195v-3.929c0-1.212-1.080-2.195-2.412-2.195z"></path>
<path fill="#fbfbfb" d="M6.25 11.582h-4.009c-1.237 0-2.24 0.983-2.24 2.195v3.929c0 1.212 1.003 2.195 2.24 2.195h4.009c1.237 0 2.24-0.983 2.24-2.195v-3.929c0-1.212-1.003-2.195-2.24-2.195z"></path>
<path fill="#fbfbfb" d="M17.766 22.978h-4.009c-1.237 0-2.24 0.983-2.24 2.195l-0 3.929c0 1.212 1.003 2.195 2.241 2.195h4.009c1.237 0 2.24-0.983 2.24-2.195v-3.929c0-1.212-1.003-2.195-2.24-2.195z"></path>
<path fill="#fbfbfb" d="M6.25 0.086h-4.009c-1.237 0-2.24 0.983-2.24 2.195v3.929c0 1.212 1.003 2.195 2.24 2.195h4.009c1.237 0 2.24-0.983 2.24-2.195v-3.929c0-1.212-1.003-2.195-2.24-2.195z"></path>
<path fill="#fbfbfb" d="M18.076 11.697h-4.009c-1.237 0-2.24 0.983-2.24 2.195v3.929c0 1.212 1.003 2.195 2.24 2.195h4.009c1.237 0 2.24-0.983 2.24-2.195v-3.929c0-1.212-1.003-2.195-2.24-2.195z"></path>
<path fill="#fbfbfb" d="M29.333 22.978h-4.009c-1.237 0-2.24 0.983-2.24 2.195v3.929c0 1.212 1.003 2.195 2.24 2.195h4.009c1.237 0 2.24-0.983 2.24-2.195v-3.929c0-1.212-1.003-2.195-2.24-2.195z"></path>
<path fill="#fbfbfb" d="M17.591 0.224h-4.009c-1.237 0-2.24 0.983-2.24 2.195v3.929c0 1.212 1.003 2.195 2.24 2.195h4.009c1.237 0 2.24-0.984 2.24-2.196v-3.929c0-1.212-1.003-2.195-2.24-2.195z"></path>
<path fill="#fbfbfb" d="M29.044 11.926h-4.009c-1.237 0-2.24 0.983-2.24 2.195v3.929c0 1.212 1.003 2.195 2.24 2.195h4.009c1.237 0 2.24-0.983 2.24-2.195v-3.929c0-1.212-1.003-2.195-2.24-2.195z"></path>
<path fill="#fbfbfb" d="M59.112 30.222c-7.748 0-12.89-5.227-12.89-13.369 0-7.964 5.068-13.298 12.706-13.298 6.427 0 10.943 3.662 11.604 9.173h-5.325c-0.514-3.164-2.975-4.942-6.28-4.942-4.627 0-7.381 3.627-7.381 9.067 0 5.973 3.085 9.138 7.565 9.138 3.893 0 6.39-2.133 6.647-5.333v-0.356h-7.161v-3.982h12.119v3.271c-0.22 6.364-4.847 10.631-11.604 10.631z"></path>
<path fill="#fbfbfb" d="M73.927 29.867v-25.956h12.89c6.573 0 9.181 3.093 9.181 7.573 0 4.018-2.938 5.938-6.353 6.4v0.107c2.203 0.533 3.195 1.707 4.113 4.018 1.175 2.916 1.359 6.4 2.864 7.644v0.213h-5.876c-1.249-1.209-1.542-5.013-2.203-7.324-0.661-2.382-2.093-2.667-4.774-2.667h-4.7v9.991h-5.141zM79.068 15.751h7.198c3.011 0 4.407-1.707 4.407-3.911 0-2.418-1.726-3.804-4.407-3.804h-7.198v7.716z"></path>
<path fill="#fbfbfb" d="M99.412 29.867v-25.956h18.324v4.124h-13.183v6.187h11.898v4.124h-11.898v7.289h13.367v4.231h-18.508z"></path>
<path fill="#fbfbfb" d="M121.489 29.867v-25.956h18.325v4.124h-13.183v6.187h11.898v4.124h-11.898v7.289h13.367v4.231h-18.508z"></path>
<path fill="#fbfbfb" d="M143.567 29.867v-25.956h6.243l8.887 14.329c2.718 4.338 3.048 5.76 3.048 5.76h0.11l-0.074-20.089h5.141v25.956h-6.28l-9.217-14.756c-2.093-3.342-2.644-5.369-2.644-5.369h-0.074v20.124h-5.141z"></path>
<path fill="#fbfbfb" d="M170.791 29.867v-5.262h5.361v5.262h-5.361z"></path>
<path fill="#fbfbfb" d="M180.012 29.867v-25.956h5.141v10.382h12.302v-10.382h5.141v25.956h-5.141v-11.449h-12.302v11.449h-5.141z"></path>
<path fill="#fbfbfb" d="M204.795 29.867l10.283-25.956h5.582l10.428 25.956h-5.508l-2.167-5.973h-11.127l-2.167 5.973h-5.324zM213.755 19.769h8.19l-2.388-6.4c-1.652-4.729-1.689-5.582-1.689-5.582h-0.073c0 0 0 0.853-1.653 5.582l-2.388 6.4z"></path>
<path fill="#fbfbfb" d="M233.278 29.867v-25.956h12.889c6.574 0 9.182 3.093 9.182 7.573 0 4.018-2.939 5.938-6.354 6.4v0.107c2.203 0.533 3.195 1.707 4.114 4.018 1.175 2.916 1.358 6.4 2.864 7.644v0.213h-5.876c-1.25-1.209-1.543-5.013-2.204-7.324-0.661-2.382-2.092-2.667-4.773-2.667h-4.7v9.991h-5.141zM238.42 15.751h7.198c3.010 0 4.405-1.707 4.405-3.911 0-2.418-1.724-3.804-4.405-3.804h-7.198v7.716z"></path>
<path fill="#fbfbfb" d="M264.213 29.867l-9.842-25.956h5.509c0 0 5.324 14.542 5.876 16.32 0.882 2.844 1.285 4.302 1.285 4.302h0.073c-0.036 0 0.368-1.458 1.285-4.302 0.588-1.778 5.692-16.32 5.692-16.32h5.324l-9.474 25.956h-5.73z"></path>
<path fill="#fbfbfb" d="M281.522 29.867v-25.956h18.325v4.124h-13.184v6.187h11.899v4.124h-11.899v7.289h13.367v4.231h-18.508z"></path>
<path fill="#fbfbfb" d="M312.795 30.222c-6.83 0-10.944-3.591-10.944-8.924h5.876c-0.073 3.022 1.984 4.693 5.068 4.693 3.268 0 4.811-1.244 4.811-3.093s-1.323-2.631-6.023-3.876c-4.297-1.138-8.997-2.489-8.997-7.822 0-4.231 3.82-7.644 9.842-7.644 6.206 0 10.172 3.378 10.172 8.142h-5.692c-0.036-2.524-1.799-3.911-4.48-3.911-2.606 0-4.332 1.28-4.332 2.987 0 2.027 1.431 2.667 5.177 3.698 5.545 1.493 10.025 2.098 10.025 7.893 0 4.658-4.37 7.858-10.501 7.858z"></path>
<path fill="#fbfbfb" d="M331.669 29.867v-21.724h-8.116v-4.231h21.335v4.231h-8.078v21.724h-5.141z"></path>
</svg>
