<svg aria-hidden="true" style="position: absolute; width: 0; height: 0; overflow: hidden;" version="1.1" xmlns="http://www.w3.org/2000/svg" xmlns:xlink="http://www.w3.org/1999/xlink">
<defs>
<symbol id="icon-chevron-up" viewBox="0 0 32 32">
<path d="M15.292 9.292c0.181-0.181 0.431-0.294 0.708-0.294s0.527 0.112 0.708 0.294l12 12c0.181 0.181 0.293 0.431 0.293 0.708 0 0.553-0.448 1.001-1.001 1.001-0.276 0-0.527-0.112-0.708-0.293v0l-11.292-11.294-11.292 11.294c-0.181 0.181-0.431 0.293-0.708 0.293-0.553 0-1.001-0.448-1.001-1.001 0-0.276 0.112-0.527 0.293-0.708v0z"></path>
</symbol>
<symbol id="icon-close-menu" viewBox="0 0 32 32">
<path fill="none" stroke="#fbfbfb" style="stroke: var(--color1, #fbfbfb)" stroke-linejoin="round" stroke-linecap="round" stroke-miterlimit="4" stroke-width="3.2" d="M24 8l-16 16"></path>
<path fill="none" stroke="#fbfbfb" style="stroke: var(--color1, #fbfbfb)" stroke-linejoin="round" stroke-linecap="round" stroke-miterlimit="4" stroke-width="3.2" d="M8 8l16 16"></path>
</symbol>
<symbol id="icon-close-menu-responsive" viewBox="0 0 32 32">
<path fill="none" stroke="#fbfbfb" style="stroke: var(--color1, #fbfbfb)" stroke-linejoin="round" stroke-linecap="round" stroke-miterlimit="4" stroke-width="3" d="M24 8l-16 16"></path>
<path fill="none" stroke="#fbfbfb" style="stroke: var(--color1, #fbfbfb)" stroke-linejoin="round" stroke-linecap="round" stroke-miterlimit="4" stroke-width="3" d="M8 8l16 16"></path>
</symbol>
<symbol id="icon-logo" viewBox="0 0 345 32">
<path fill="#fbfbfb" style="fill: var(--color1, #fbfbfb)" d="M29.082 0.314h-4.009c-1.237 0-2.24 0.983-2.24 2.195v3.929c0 1.212 1.003 2.195 2.24 2.195h4.009c1.237 0 2.24-0.983 2.24-2.195v-3.929c0-1.212-1.003-2.195-2.24-2.195z"></path>
<path fill="#fbfbfb" style="fill: var(--color1, #fbfbfb)" d="M6.73 23.040h-4.318c-1.332 0-2.412 0.983-2.412 2.195v3.929c0 1.212 1.080 2.195 2.412 2.195h4.318c1.332 0 2.412-0.983 2.412-2.195v-3.929c0-1.212-1.080-2.195-2.412-2.195z"></path>
<path fill="#fbfbfb" style="fill: var(--color1, #fbfbfb)" d="M6.25 11.582h-4.009c-1.237 0-2.24 0.983-2.24 2.195v3.929c0 1.212 1.003 2.195 2.24 2.195h4.009c1.237 0 2.24-0.983 2.24-2.195v-3.929c0-1.212-1.003-2.195-2.24-2.195z"></path>
<path fill="#fbfbfb" style="fill: var(--color1, #fbfbfb)" d="M17.766 22.978h-4.009c-1.237 0-2.24 0.983-2.24 2.195v3.929c0 1.212 1.003 2.195 2.241 2.195h4.009c1.237 0 2.24-0.983 2.24-2.195v-3.929c0-1.212-1.003-2.195-2.24-2.195z"></path>
<path fill="#fbfbfb" style="fill: var(--color1, #fbfbfb)" d="M6.25 0.086h-4.009c-1.237 0-2.24 0.983-2.24 2.195v3.929c0 1.212 1.003 2.195 2.24 2.195h4.009c1.237 0 2.24-0.983 2.24-2.195v-3.929c0-1.212-1.003-2.195-2.24-2.195z"></path>
<path fill="#fbfbfb" style="fill: var(--color1, #fbfbfb)" d="M18.076 11.697h-4.009c-1.237 0-2.24 0.983-2.24 2.195v3.929c0 1.212 1.003 2.195 2.24 2.195h4.009c1.237 0 2.24-0.983 2.24-2.195v-3.929c0-1.212-1.003-2.195-2.24-2.195z"></path>
<path fill="#fbfbfb" style="fill: var(--color1, #fbfbfb)" d="M29.333 22.978h-4.009c-1.237 0-2.24 0.983-2.24 2.195v3.929c0 1.212 1.003 2.195 2.24 2.195h4.009c1.237 0 2.24-0.983 2.24-2.195v-3.929c0-1.212-1.003-2.195-2.24-2.195z"></path>
<path fill="#fbfbfb" style="fill: var(--color1, #fbfbfb)" d="M17.591 0.224h-4.009c-1.237 0-2.24 0.983-2.24 2.195v3.929c0 1.212 1.003 2.195 2.24 2.195h4.009c1.237 0 2.24-0.984 2.24-2.196v-3.929c0-1.212-1.003-2.195-2.24-2.195z"></path>
<path fill="#fbfbfb" style="fill: var(--color1, #fbfbfb)" d="M29.044 11.926h-4.009c-1.237 0-2.24 0.983-2.24 2.195v3.929c0 1.212 1.003 2.195 2.24 2.195h4.009c1.237 0 2.24-0.983 2.24-2.195v-3.929c0-1.212-1.003-2.195-2.24-2.195z"></path>
<path fill="#fbfbfb" style="fill: var(--color1, #fbfbfb)" d="M59.112 30.222c-7.748 0-12.89-5.227-12.89-13.369 0-7.964 5.068-13.298 12.706-13.298 6.427 0 10.943 3.662 11.604 9.173h-5.325c-0.514-3.164-2.975-4.942-6.28-4.942-4.627 0-7.381 3.627-7.381 9.067 0 5.973 3.085 9.138 7.565 9.138 3.893 0 6.39-2.133 6.647-5.333v-0.356h-7.161v-3.982h12.119v3.271c-0.22 6.364-4.847 10.631-11.604 10.631z"></path>
<path fill="#fbfbfb" style="fill: var(--color1, #fbfbfb)" d="M73.927 29.867v-25.956h12.89c6.573 0 9.181 3.093 9.181 7.573 0 4.018-2.938 5.938-6.353 6.4v0.107c2.203 0.533 3.195 1.707 4.113 4.018 1.175 2.916 1.359 6.4 2.864 7.644v0.213h-5.876c-1.249-1.209-1.542-5.013-2.203-7.324-0.661-2.382-2.093-2.667-4.774-2.667h-4.7v9.991h-5.141zM79.068 15.751h7.198c3.011 0 4.407-1.707 4.407-3.911 0-2.418-1.726-3.804-4.407-3.804h-7.198v7.716z"></path>
<path fill="#fbfbfb" style="fill: var(--color1, #fbfbfb)" d="M99.412 29.867v-25.956h18.324v4.124h-13.183v6.187h11.898v4.124h-11.898v7.289h13.367v4.231h-18.508z"></path>
<path fill="#fbfbfb" style="fill: var(--color1, #fbfbfb)" d="M121.489 29.867v-25.956h18.325v4.124h-13.183v6.187h11.898v4.124h-11.898v7.289h13.367v4.231h-18.508z"></path>
<path fill="#fbfbfb" style="fill: var(--color1, #fbfbfb)" d="M143.567 29.867v-25.956h6.243l8.887 14.329c2.718 4.338 3.048 5.76 3.048 5.76h0.11l-0.074-20.089h5.141v25.956h-6.28l-9.217-14.756c-2.093-3.342-2.644-5.369-2.644-5.369h-0.074v20.124h-5.141z"></path>
<path fill="#fbfbfb" style="fill: var(--color1, #fbfbfb)" d="M170.791 29.867v-5.262h5.361v5.262h-5.361z"></path>
<path fill="#fbfbfb" style="fill: var(--color1, #fbfbfb)" d="M180.012 29.867v-25.956h5.141v10.382h12.302v-10.382h5.141v25.956h-5.141v-11.449h-12.302v11.449h-5.141z"></path>
<path fill="#fbfbfb" style="fill: var(--color1, #fbfbfb)" d="M204.795 29.867l10.283-25.956h5.582l10.428 25.956h-5.508l-2.167-5.973h-11.127l-2.167 5.973h-5.324zM213.755 19.769h8.19l-2.388-6.4c-1.652-4.729-1.689-5.582-1.689-5.582h-0.073c0 0 0 0.853-1.653 5.582l-2.388 6.4z"></path>
<path fill="#fbfbfb" style="fill: var(--color1, #fbfbfb)" d="M233.278 29.867v-25.956h12.889c6.574 0 9.182 3.093 9.182 7.573 0 4.018-2.939 5.938-6.354 6.4v0.107c2.203 0.533 3.195 1.707 4.114 4.018 1.175 2.916 1.358 6.4 2.864 7.644v0.213h-5.876c-1.25-1.209-1.543-5.013-2.204-7.324-0.661-2.382-2.092-2.667-4.773-2.667h-4.7v9.991h-5.141zM238.42 15.751h7.198c3.010 0 4.405-1.707 4.405-3.911 0-2.418-1.724-3.804-4.405-3.804h-7.198v7.716z"></path>
<path fill="#fbfbfb" style="fill: var(--color1, #fbfbfb)" d="M264.213 29.867l-9.842-25.956h5.509c0 0 5.324 14.542 5.876 16.32 0.882 2.844 1.285 4.302 1.285 4.302h0.073c-0.036 0 0.368-1.458 1.285-4.302 0.588-1.778 5.692-16.32 5.692-16.32h5.324l-9.474 25.956h-5.73z"></path>
<path fill="#fbfbfb" style="fill: var(--color1, #fbfbfb)" d="M281.522 29.867v-25.956h18.325v4.124h-13.184v6.187h11.899v4.124h-11.899v7.289h13.367v4.231h-18.508z"></path>
<path fill="#fbfbfb" style="fill: var(--color1, #fbfbfb)" d="M312.795 30.222c-6.83 0-10.944-3.591-10.944-8.924h5.876c-0.073 3.022 1.984 4.693 5.068 4.693 3.268 0 4.811-1.244 4.811-3.093s-1.323-2.631-6.023-3.876c-4.297-1.138-8.997-2.489-8.997-7.822 0-4.231 3.82-7.644 9.842-7.644 6.206 0 10.172 3.378 10.172 8.142h-5.692c-0.036-2.524-1.799-3.911-4.48-3.911-2.606 0-4.332 1.28-4.332 2.987 0 2.027 1.431 2.667 5.177 3.698 5.545 1.493 10.025 2.098 10.025 7.893 0 4.658-4.37 7.858-10.501 7.858z"></path>
<path fill="#fbfbfb" style="fill: var(--color1, #fbfbfb)" d="M331.669 29.867v-21.724h-8.116v-4.231h21.335v4.231h-8.078v21.724h-5.141z"></path>
</symbol>
<symbol id="icon-logo-responsive" viewBox="0 0 336 32">
<path fill="#fbfbfb" style="fill: var(--color1, #fbfbfb)" d="M29.082 0.314h-4.009c-1.237 0-2.24 0.983-2.24 2.195v3.929c0 1.212 1.003 2.195 2.24 2.195h4.009c1.237 0 2.24-0.983 2.24-2.195v-3.929c0-1.212-1.003-2.195-2.24-2.195z"></path>
<path fill="#fbfbfb" style="fill: var(--color1, #fbfbfb)" d="M6.73 23.040h-4.318c-1.332 0-2.412 0.983-2.412 2.195v3.929c0 1.213 1.080 2.195 2.412 2.195h4.318c1.332 0 2.412-0.983 2.412-2.195v-3.929c0-1.212-1.080-2.195-2.412-2.195z"></path>
<path fill="#fbfbfb" style="fill: var(--color1, #fbfbfb)" d="M6.25 11.582h-4.009c-1.237 0-2.24 0.983-2.24 2.195v3.929c0 1.212 1.003 2.195 2.24 2.195h4.009c1.237 0 2.24-0.983 2.24-2.195v-3.929c0-1.212-1.003-2.195-2.24-2.195z"></path>
<path fill="#fbfbfb" style="fill: var(--color1, #fbfbfb)" d="M17.766 22.978h-4.009c-1.237 0-2.24 0.983-2.24 2.195l-0 3.929c0 1.212 1.003 2.195 2.241 2.195h4.009c1.237 0 2.24-0.983 2.24-2.195v-3.929c0-1.213-1.003-2.195-2.24-2.195z"></path>
<path fill="#fbfbfb" style="fill: var(--color1, #fbfbfb)" d="M6.25 0.086h-4.009c-1.237 0-2.24 0.983-2.24 2.195v3.929c0 1.212 1.003 2.195 2.24 2.195h4.009c1.237 0 2.24-0.983 2.24-2.195v-3.929c0-1.212-1.003-2.195-2.24-2.195z"></path>
<path fill="#fbfbfb" style="fill: var(--color1, #fbfbfb)" d="M18.076 11.697h-4.009c-1.237 0-2.24 0.983-2.24 2.195v3.929c0 1.212 1.003 2.195 2.24 2.195h4.009c1.237 0 2.24-0.983 2.24-2.195v-3.929c0-1.212-1.003-2.195-2.24-2.195z"></path>
<path fill="#fbfbfb" style="fill: var(--color1, #fbfbfb)" d="M29.333 22.978h-4.010c-1.237 0-2.24 0.983-2.24 2.195v3.929c0 1.212 1.003 2.195 2.24 2.195h4.009c1.237 0 2.24-0.983 2.24-2.195v-3.929c0-1.213-1.003-2.195-2.24-2.195z"></path>
<path fill="#fbfbfb" style="fill: var(--color1, #fbfbfb)" d="M17.591 0.224h-4.009c-1.237 0-2.24 0.983-2.24 2.195v3.929c0 1.212 1.003 2.195 2.24 2.195h4.009c1.237 0 2.24-0.984 2.24-2.196v-3.929c0-1.212-1.003-2.195-2.24-2.195z"></path>
<path fill="#fbfbfb" style="fill: var(--color1, #fbfbfb)" d="M29.044 11.926h-4.010c-1.237 0-2.24 0.983-2.24 2.195v3.929c0 1.212 1.003 2.195 2.24 2.195h4.009c1.237 0 2.24-0.983 2.24-2.195v-3.929c0-1.212-1.003-2.195-2.24-2.195z"></path>
<path fill="#fbfbfb" style="fill: var(--color1, #fbfbfb)" d="M52.602 28c-7.576 0-12.602-4.704-12.602-12.032 0-7.168 4.955-11.968 12.422-11.968 6.283 0 10.699 3.296 11.345 8.256h-5.206c-0.503-2.848-2.908-4.448-6.139-4.448-4.524 0-7.216 3.264-7.216 8.16 0 5.376 3.016 8.224 7.396 8.224 3.806 0 6.247-1.92 6.498-4.8v-0.32h-7.001v-3.584h11.848v2.944c-0.215 5.728-4.739 9.568-11.345 9.568z"></path>
<path fill="#fbfbfb" style="fill: var(--color1, #fbfbfb)" d="M67.086 27.68v-23.36h12.602c6.427 0 8.976 2.784 8.976 6.816 0 3.616-2.872 5.344-6.211 5.76v0.096c2.154 0.48 3.124 1.536 4.021 3.616 1.149 2.624 1.328 5.76 2.8 6.88v0.192h-5.745c-1.221-1.088-1.508-4.512-2.154-6.592-0.646-2.144-2.046-2.4-4.667-2.4h-4.596v8.992h-5.026zM72.112 14.976h7.037c2.944 0 4.308-1.536 4.308-3.52 0-2.176-1.687-3.424-4.308-3.424h-7.037v6.944z"></path>
<path fill="#fbfbfb" style="fill: var(--color1, #fbfbfb)" d="M92.002 27.68v-23.36h17.916v3.712h-12.889v5.568h11.633v3.712h-11.633v6.56h13.069v3.808h-18.095z"></path>
<path fill="#fbfbfb" style="fill: var(--color1, #fbfbfb)" d="M113.587 27.68v-23.36h17.916v3.712h-12.889v5.568h11.633v3.712h-11.633v6.56h13.069v3.808h-18.095z"></path>
<path fill="#fbfbfb" style="fill: var(--color1, #fbfbfb)" d="M135.172 27.68v-23.36h6.104l8.688 12.896c2.657 3.904 2.98 5.184 2.98 5.184h0.108l-0.072-18.080h5.026v23.36h-6.139l-9.012-13.28c-2.046-3.008-2.585-4.832-2.585-4.832h-0.072v18.112h-5.026z"></path>
<path fill="#fbfbfb" style="fill: var(--color1, #fbfbfb)" d="M161.788 27.68v-4.736h5.242v4.736h-5.242z"></path>
<path fill="#fbfbfb" style="fill: var(--color1, #fbfbfb)" d="M170.805 27.68v-23.36h5.026v9.344h12.028v-9.344h5.026v23.36h-5.026v-10.304h-12.028v10.304h-5.026z"></path>
<path fill="#fbfbfb" style="fill: var(--color1, #fbfbfb)" d="M195.033 27.68l10.053-23.36h5.458l10.196 23.36h-5.386l-2.118-5.376h-10.878l-2.118 5.376h-5.207zM203.794 18.592h8.006l-2.334-5.76c-1.616-4.256-1.652-5.024-1.652-5.024h-0.072c0 0 0 0.768-1.614 5.024l-2.334 5.76z"></path>
<path fill="#fbfbfb" style="fill: var(--color1, #fbfbfb)" d="M222.88 27.68v-23.36h12.602c6.428 0 8.976 2.784 8.976 6.816 0 3.616-2.872 5.344-6.21 5.76v0.096c2.154 0.48 3.122 1.536 4.020 3.616 1.15 2.624 1.328 5.76 2.8 6.88v0.192h-5.744c-1.22-1.088-1.508-4.512-2.154-6.592-0.646-2.144-2.046-2.4-4.668-2.4h-4.594v8.992h-5.028zM227.908 14.976h7.036c2.944 0 4.308-1.536 4.308-3.52 0-2.176-1.688-3.424-4.308-3.424h-7.036v6.944z"></path>
<path fill="#fbfbfb" style="fill: var(--color1, #fbfbfb)" d="M253.126 27.68l-9.622-23.36h5.386c0 0 5.206 13.088 5.744 14.688 0.862 2.56 1.256 3.872 1.256 3.872h0.072c-0.036 0 0.36-1.312 1.256-3.872 0.576-1.6 5.566-14.688 5.566-14.688h5.206l-9.264 23.36h-5.6z"></path>
<path fill="#fbfbfb" style="fill: var(--color1, #fbfbfb)" d="M270.048 27.68v-23.36h17.916v3.712h-12.89v5.568h11.634v3.712h-11.634v6.56h13.070v3.808h-18.096z"></path>
<path fill="#fbfbfb" style="fill: var(--color1, #fbfbfb)" d="M300.622 28c-6.678 0-10.7-3.232-10.7-8.032h5.746c-0.072 2.72 1.938 4.224 4.954 4.224 3.196 0 4.702-1.12 4.702-2.784s-1.292-2.368-5.888-3.488c-4.2-1.024-8.796-2.24-8.796-7.040 0-3.808 3.734-6.88 9.622-6.88 6.068 0 9.946 3.040 9.946 7.328h-5.566c-0.036-2.272-1.758-3.52-4.38-3.52-2.548 0-4.236 1.152-4.236 2.688 0 1.824 1.4 2.4 5.062 3.328 5.422 1.344 9.802 1.888 9.802 7.104 0 4.192-4.272 7.072-10.268 7.072z"></path>
<path fill="#fbfbfb" style="fill: var(--color1, #fbfbfb)" d="M319.074 27.68v-19.552h-7.934v-3.808h20.86v3.808h-7.898v19.552h-5.028z"></path>
</symbol>
<symbol id="icon-menu-bar" viewBox="0 0 43 32">
<path fill="none" stroke="#fbfbfb" style="stroke: var(--color1, #fbfbfb)" stroke-linejoin="round" stroke-linecap="round" stroke-miterlimit="4" stroke-width="5.3333" d="M3.555 2.667h35.556M3.555 16h17.778M3.555 29.333h35.556"></path>
</symbol>
<symbol id="icon-menu-bar-responsive" viewBox="0 0 42 32">
<path fill="none" stroke="#fbfbfb" style="stroke: var(--color1, #fbfbfb)" stroke-linejoin="round" stroke-linecap="round" stroke-miterlimit="4" stroke-width="4.8" d="M3.734 3.2h34.133M3.734 16h17.067M3.734 28.8h34.133"></path>
</symbol>
</defs>
</svg>
