<svg aria-hidden="true" style="position:absolute;width:0;height:0;overflow:hidden" xmlns="http://www.w3.org/2000/svg"><defs><symbol id="icon-chevron-up" viewBox="0 0 32 32"><path d="M15.292 9.292a.998.998 0 0 1 1.416 0l12 12a1 1 0 1 1-1.416 1.416L16 11.414 4.708 22.708a1 1 0 1 1-1.416-1.416z"/></symbol><symbol id="icon-close-menu" viewBox="0 0 32 32"><path fill="none" stroke="#fbfbfb" style="stroke:var(--color1, #fbfbfb)" stroke-linejoin="round" stroke-linecap="round" stroke-width="3.2" d="M24 8 8 24M8 8l16 16"/></symbol><symbol id="icon-close-menu-responsive" viewBox="0 0 32 32"><path fill="none" stroke="#fbfbfb" style="stroke:var(--color1, #fbfbfb)" stroke-linejoin="round" stroke-linecap="round" stroke-width="3" d="M24 8 8 24M8 8l16 16"/></symbol><symbol id="icon-logo" viewBox="0 0 345 32"><path fill="#fbfbfb" style="fill:var(--color1, #fbfbfb)" d="M29.082.314h-4.009c-1.237 0-2.24.983-2.24 2.195v3.929c0 1.212 1.003 2.195 2.24 2.195h4.009c1.237 0 2.24-.983 2.24-2.195V2.509c0-1.212-1.003-2.195-2.24-2.195zM6.73 23.04H2.412C1.08 23.04 0 24.023 0 25.235v3.929c0 1.212 1.08 2.195 2.412 2.195H6.73c1.332 0 2.412-.983 2.412-2.195v-3.929c0-1.212-1.08-2.195-2.412-2.195zM6.25 11.582H2.241c-1.237 0-2.24.983-2.24 2.195v3.929c0 1.212 1.003 2.195 2.24 2.195H6.25c1.237 0 2.24-.983 2.24-2.195v-3.929c0-1.212-1.003-2.195-2.24-2.195zM17.766 22.978h-4.009c-1.237 0-2.24.983-2.24 2.195v3.929c0 1.212 1.003 2.195 2.241 2.195h4.009c1.237 0 2.24-.983 2.24-2.195v-3.929c0-1.212-1.003-2.195-2.24-2.195zM6.25.086H2.241c-1.237 0-2.24.983-2.24 2.195V6.21c0 1.212 1.003 2.195 2.24 2.195H6.25c1.237 0 2.24-.983 2.24-2.195V2.281C8.49 1.069 7.487.086 6.25.086zM18.076 11.697h-4.009c-1.237 0-2.24.983-2.24 2.195v3.929c0 1.212 1.003 2.195 2.24 2.195h4.009c1.237 0 2.24-.983 2.24-2.195v-3.929c0-1.212-1.003-2.195-2.24-2.195zM29.333 22.978h-4.009c-1.237 0-2.24.983-2.24 2.195v3.929c0 1.212 1.003 2.195 2.24 2.195h4.009c1.237 0 2.24-.983 2.24-2.195v-3.929c0-1.212-1.003-2.195-2.24-2.195zM17.591.224h-4.009c-1.237 0-2.24.983-2.24 2.195v3.929c0 1.212 1.003 2.195 2.24 2.195h4.009c1.237 0 2.24-.984 2.24-2.196V2.418c0-1.212-1.003-2.195-2.24-2.195zM29.044 11.926h-4.009c-1.237 0-2.24.983-2.24 2.195v3.929c0 1.212 1.003 2.195 2.24 2.195h4.009c1.237 0 2.24-.983 2.24-2.195v-3.929c0-1.212-1.003-2.195-2.24-2.195zM59.112 30.222c-7.748 0-12.89-5.227-12.89-13.369 0-7.964 5.068-13.298 12.706-13.298 6.427 0 10.943 3.662 11.604 9.173h-5.325c-.514-3.164-2.975-4.942-6.28-4.942-4.627 0-7.381 3.627-7.381 9.067 0 5.973 3.085 9.138 7.565 9.138 3.893 0 6.39-2.133 6.647-5.333v-.356h-7.161V16.32h12.119v3.271c-.22 6.364-4.847 10.631-11.604 10.631zM73.927 29.867V3.911h12.89c6.573 0 9.181 3.093 9.181 7.573 0 4.018-2.938 5.938-6.353 6.4v.107c2.203.533 3.195 1.707 4.113 4.018 1.175 2.916 1.359 6.4 2.864 7.644v.213h-5.876c-1.249-1.209-1.542-5.013-2.203-7.324-.661-2.382-2.093-2.667-4.774-2.667h-4.7v9.991h-5.141zm5.141-14.116h7.198c3.011 0 4.407-1.707 4.407-3.911 0-2.418-1.726-3.804-4.407-3.804h-7.198v7.716zM99.412 29.867V3.911h18.324v4.124h-13.183v6.187h11.898v4.124h-11.898v7.289h13.367v4.231H99.412zM121.489 29.867V3.911h18.325v4.124h-13.183v6.187h11.898v4.124h-11.898v7.289h13.367v4.231H121.49zM143.567 29.867V3.911h6.243l8.887 14.329c2.718 4.338 3.048 5.76 3.048 5.76h.11l-.074-20.089h5.141v25.956h-6.28l-9.217-14.756c-2.093-3.342-2.644-5.369-2.644-5.369h-.074v20.124h-5.141zM170.791 29.867v-5.262h5.361v5.262h-5.361zM180.012 29.867V3.911h5.141v10.382h12.302V3.911h5.141v25.956h-5.141V18.418h-12.302v11.449h-5.141zM204.795 29.867l10.283-25.956h5.582l10.428 25.956h-5.508l-2.167-5.973h-11.127l-2.167 5.973h-5.324zm8.96-10.098h8.19l-2.388-6.4c-1.652-4.729-1.689-5.582-1.689-5.582h-.073s0 .853-1.653 5.582l-2.388 6.4zM233.278 29.867V3.911h12.889c6.574 0 9.182 3.093 9.182 7.573 0 4.018-2.939 5.938-6.354 6.4v.107c2.203.533 3.195 1.707 4.114 4.018 1.175 2.916 1.358 6.4 2.864 7.644v.213h-5.876c-1.25-1.209-1.543-5.013-2.204-7.324-.661-2.382-2.092-2.667-4.773-2.667h-4.7v9.991h-5.141zm5.142-14.116h7.198c3.01 0 4.405-1.707 4.405-3.911 0-2.418-1.724-3.804-4.405-3.804h-7.198v7.716zM264.213 29.867l-9.842-25.956h5.509s5.324 14.542 5.876 16.32c.882 2.844 1.285 4.302 1.285 4.302h.073c-.036 0 .368-1.458 1.285-4.302.588-1.778 5.692-16.32 5.692-16.32h5.324l-9.474 25.956h-5.73zM281.522 29.867V3.911h18.325v4.124h-13.184v6.187h11.899v4.124h-11.899v7.289h13.367v4.231h-18.508zM312.795 30.222c-6.83 0-10.944-3.591-10.944-8.924h5.876c-.073 3.022 1.984 4.693 5.068 4.693 3.268 0 4.811-1.244 4.811-3.093s-1.323-2.631-6.023-3.876c-4.297-1.138-8.997-2.489-8.997-7.822 0-4.231 3.82-7.644 9.842-7.644 6.206 0 10.172 3.378 10.172 8.142h-5.692c-.036-2.524-1.799-3.911-4.48-3.911-2.606 0-4.332 1.28-4.332 2.987 0 2.027 1.431 2.667 5.177 3.698 5.545 1.493 10.025 2.098 10.025 7.893 0 4.658-4.37 7.858-10.501 7.858zM331.669 29.867V8.143h-8.116V3.912h21.335v4.231h-8.078v21.724h-5.141z"/></symbol><symbol id="icon-logo-responsive" viewBox="0 0 336 32"><path fill="#fbfbfb" style="fill:var(--color1, #fbfbfb)" d="M29.082.314h-4.009c-1.237 0-2.24.983-2.24 2.195v3.929c0 1.212 1.003 2.195 2.24 2.195h4.009c1.237 0 2.24-.983 2.24-2.195V2.509c0-1.212-1.003-2.195-2.24-2.195zM6.73 23.04H2.412C1.08 23.04 0 24.023 0 25.235v3.929c0 1.213 1.08 2.195 2.412 2.195H6.73c1.332 0 2.412-.983 2.412-2.195v-3.929c0-1.212-1.08-2.195-2.412-2.195zM6.25 11.582H2.241c-1.237 0-2.24.983-2.24 2.195v3.929c0 1.212 1.003 2.195 2.24 2.195H6.25c1.237 0 2.24-.983 2.24-2.195v-3.929c0-1.212-1.003-2.195-2.24-2.195zM17.766 22.978h-4.009c-1.237 0-2.24.983-2.24 2.195v3.929c0 1.212 1.003 2.195 2.241 2.195h4.009c1.237 0 2.24-.983 2.24-2.195v-3.929c0-1.213-1.003-2.195-2.24-2.195zM6.25.086H2.241c-1.237 0-2.24.983-2.24 2.195V6.21c0 1.212 1.003 2.195 2.24 2.195H6.25c1.237 0 2.24-.983 2.24-2.195V2.281C8.49 1.069 7.487.086 6.25.086zM18.076 11.697h-4.009c-1.237 0-2.24.983-2.24 2.195v3.929c0 1.212 1.003 2.195 2.24 2.195h4.009c1.237 0 2.24-.983 2.24-2.195v-3.929c0-1.212-1.003-2.195-2.24-2.195zM29.333 22.978h-4.01c-1.237 0-2.24.983-2.24 2.195v3.929c0 1.212 1.003 2.195 2.24 2.195h4.009c1.237 0 2.24-.983 2.24-2.195v-3.929c0-1.213-1.003-2.195-2.24-2.195zM17.591.224h-4.009c-1.237 0-2.24.983-2.24 2.195v3.929c0 1.212 1.003 2.195 2.24 2.195h4.009c1.237 0 2.24-.984 2.24-2.196V2.418c0-1.212-1.003-2.195-2.24-2.195zM29.044 11.926h-4.01c-1.237 0-2.24.983-2.24 2.195v3.929c0 1.212 1.003 2.195 2.24 2.195h4.009c1.237 0 2.24-.983 2.24-2.195v-3.929c0-1.212-1.003-2.195-2.24-2.195zM52.602 28C45.026 28 40 23.296 40 15.968 40 8.8 44.955 4 52.422 4c6.283 0 10.699 3.296 11.345 8.256h-5.206c-.503-2.848-2.908-4.448-6.139-4.448-4.524 0-7.216 3.264-7.216 8.16 0 5.376 3.016 8.224 7.396 8.224 3.806 0 6.247-1.92 6.498-4.8v-.32h-7.001v-3.584h11.848v2.944C63.732 24.16 59.208 28 52.602 28zM67.086 27.68V4.32h12.602c6.427 0 8.976 2.784 8.976 6.816 0 3.616-2.872 5.344-6.211 5.76v.096c2.154.48 3.124 1.536 4.021 3.616 1.149 2.624 1.328 5.76 2.8 6.88v.192h-5.745c-1.221-1.088-1.508-4.512-2.154-6.592-.646-2.144-2.046-2.4-4.667-2.4h-4.596v8.992h-5.026zm5.026-12.704h7.037c2.944 0 4.308-1.536 4.308-3.52 0-2.176-1.687-3.424-4.308-3.424h-7.037v6.944zM92.002 27.68V4.32h17.916v3.712H97.029V13.6h11.633v3.712H97.029v6.56h13.069v3.808H92.003zM113.587 27.68V4.32h17.916v3.712h-12.889V13.6h11.633v3.712h-11.633v6.56h13.069v3.808h-18.095zM135.172 27.68V4.32h6.104l8.688 12.896c2.657 3.904 2.98 5.184 2.98 5.184h.108l-.072-18.08h5.026v23.36h-6.139l-9.012-13.28c-2.046-3.008-2.585-4.832-2.585-4.832h-.072V27.68h-5.026zM161.788 27.68v-4.736h5.242v4.736h-5.242zM170.805 27.68V4.32h5.026v9.344h12.028V4.32h5.026v23.36h-5.026V17.376h-12.028V27.68h-5.026zM195.033 27.68l10.053-23.36h5.458l10.196 23.36h-5.386l-2.118-5.376h-10.878l-2.118 5.376h-5.207zm8.761-9.088h8.006l-2.334-5.76c-1.616-4.256-1.652-5.024-1.652-5.024h-.072s0 .768-1.614 5.024l-2.334 5.76zM222.88 27.68V4.32h12.602c6.428 0 8.976 2.784 8.976 6.816 0 3.616-2.872 5.344-6.21 5.76v.096c2.154.48 3.122 1.536 4.02 3.616 1.15 2.624 1.328 5.76 2.8 6.88v.192h-5.744c-1.22-1.088-1.508-4.512-2.154-6.592-.646-2.144-2.046-2.4-4.668-2.4h-4.594v8.992h-5.028zm5.028-12.704h7.036c2.944 0 4.308-1.536 4.308-3.52 0-2.176-1.688-3.424-4.308-3.424h-7.036v6.944zM253.126 27.68l-9.622-23.36h5.386s5.206 13.088 5.744 14.688c.862 2.56 1.256 3.872 1.256 3.872h.072c-.036 0 .36-1.312 1.256-3.872.576-1.6 5.566-14.688 5.566-14.688h5.206l-9.264 23.36h-5.6zM270.048 27.68V4.32h17.916v3.712h-12.89V13.6h11.634v3.712h-11.634v6.56h13.07v3.808h-18.096zM300.622 28c-6.678 0-10.7-3.232-10.7-8.032h5.746c-.072 2.72 1.938 4.224 4.954 4.224 3.196 0 4.702-1.12 4.702-2.784s-1.292-2.368-5.888-3.488c-4.2-1.024-8.796-2.24-8.796-7.04 0-3.808 3.734-6.88 9.622-6.88 6.068 0 9.946 3.04 9.946 7.328h-5.566c-.036-2.272-1.758-3.52-4.38-3.52-2.548 0-4.236 1.152-4.236 2.688 0 1.824 1.4 2.4 5.062 3.328 5.422 1.344 9.802 1.888 9.802 7.104 0 4.192-4.272 7.072-10.268 7.072zM319.074 27.68V8.128h-7.934V4.32H332v3.808h-7.898V27.68h-5.028z"/></symbol><symbol id="icon-menu-bar" viewBox="0 0 43 32"><path fill="none" stroke="#fbfbfb" style="stroke:var(--color1, #fbfbfb)" stroke-linejoin="round" stroke-linecap="round" stroke-width="5.333" d="M3.555 2.667h35.556M3.555 16h17.778M3.555 29.333h35.556"/></symbol><symbol id="icon-menu-bar-responsive" viewBox="0 0 42 32"><path fill="none" stroke="#fbfbfb" style="stroke:var(--color1, #fbfbfb)" stroke-linejoin="round" stroke-linecap="round" stroke-width="4.8" d="M3.734 3.2h34.133M3.734 16h17.067M3.734 28.8h34.133"/></symbol></defs></svg>